# xmcd
#
# Track frame offsets: 
#        150
#        20025
#        38802
#        53641
#        64958
#        79090
#        96577
#        108124
#        122054
#        140731
#        159074
#        174059
#        200368
#
# Disc length: 3355 seconds
#
# Revision: 0
# Processed by: cddbd v1.5.2PL0 Copyright (c) Steve Scherf et al.
# Submitted via: ExactAudioCopy v0.99pb3
#
DISCID=a70d190d
DTITLE=John Lee Jr. Hooker - All Odds Against Me
DYEAR=2008
DGENRE=Blues
TTITLE0=Dear John 
TTITLE1=Extramarital Affair 
TTITLE2=One Eye Open 
TTITLE3=I Miss You So 
TTITLE4=I've Got Your Back 
TTITLE5=Pay Day 
TTITLE6=Stressed Out 
TTITLE7=There's A Struggle 
TTITLE8=Old School 
TTITLE9=Blues Ain't Nothing But A Pimp 
TTITLE10=The People Want A Change 
TTITLE11=That Be The Blues 
TTITLE12=Blues Ain't Nothing But A Pimp (Animated Music Video) 
EXTD=
EXTT0=
EXTT1=
EXTT2=
EXTT3=
EXTT4=
EXTT5=
EXTT6=
EXTT7=
EXTT8=
EXTT9=
EXTT10=
EXTT11=
EXTT12=
PLAYORDER=
